<svg xmlns:xlink="http://www.w3.org/1999/xlink" xmlns="http://www.w3.org/2000/svg" aria-hidden="true" viewBox="0 0 24 24" role="img" width="24"  height="24" ><path vector-effect="non-scaling-stroke" stroke="black" stroke-linecap="round" stroke-linejoin="round" stroke-miterlimit="10" stroke-width="1.5px" d="M12 10.5a2.1 2.1 0 100-4.2 2.1 2.1 0 000 4.2z" fill="none"></path><path vector-effect="non-scaling-stroke" stroke="black" stroke-linecap="round" stroke-linejoin="round" stroke-miterlimit="10" stroke-width="1.5px" d="M17.4 8.4C17.4 5.4 15 3 12 3 9 3 6.6 5.4 6.6 8.4c0 1.3.5 2.4 1.2 3.4C9 13.2 12 18 12 18s3-4.8 4.1-6.3c.7-.9 1.3-2.1 1.3-3.3zM16 18c2.4.3 4 .8 4 1.4 0 .9-3.6 1.6-8 1.6s-8-.7-8-1.6c0-.6 1.6-1.1 4-1.4" fill="none"></path></svg>